<svg xmlns="http://www.w3.org/2000/svg" width="10.937" height="10.935" viewBox="0 0 10.937 10.935">
  <path id="Icon_awesome-instagram" data-name="Icon awesome-instagram" d="M5.465,4.9a2.8,2.8,0,1,0,2.8,2.8A2.8,2.8,0,0,0,5.465,4.9Zm0,4.626A1.823,1.823,0,1,1,7.287,7.705,1.826,1.826,0,0,1,5.465,9.528ZM9.037,4.787a.654.654,0,1,1-.654-.654A.652.652,0,0,1,9.037,4.787Zm1.857.664a3.236,3.236,0,0,0-.883-2.291,3.257,3.257,0,0,0-2.291-.883c-.9-.051-3.609-.051-4.512,0a3.253,3.253,0,0,0-2.291.881A3.247,3.247,0,0,0,.033,5.448c-.051.9-.051,3.609,0,4.512a3.236,3.236,0,0,0,.883,2.291,3.262,3.262,0,0,0,2.291.883c.9.051,3.609.051,4.512,0a3.236,3.236,0,0,0,2.291-.883,3.257,3.257,0,0,0,.883-2.291c.051-.9.051-3.606,0-4.509ZM9.727,10.928a1.845,1.845,0,0,1-1.039,1.039,12.051,12.051,0,0,1-3.223.22,12.145,12.145,0,0,1-3.223-.22A1.845,1.845,0,0,1,1.2,10.928a12.051,12.051,0,0,1-.22-3.223A12.145,12.145,0,0,1,1.2,4.482,1.845,1.845,0,0,1,2.241,3.442a12.051,12.051,0,0,1,3.223-.22,12.145,12.145,0,0,1,3.223.22A1.845,1.845,0,0,1,9.727,4.482a12.051,12.051,0,0,1,.22,3.223A12.044,12.044,0,0,1,9.727,10.928Z" transform="translate(0.005 -2.238)" fill="#e1b83d"/>
</svg>
