<svg xmlns="http://www.w3.org/2000/svg" width="20.481" height="20.481" viewBox="0 0 20.481 20.481">
  <path id="Icon_ionic-md-call" data-name="Icon ionic-md-call" d="M23.843,18.723A13.355,13.355,0,0,1,19.8,18.1a1.064,1.064,0,0,0-1.138.284l-2.5,2.5a17.111,17.111,0,0,1-7.51-7.51l2.5-2.5a1.186,1.186,0,0,0,.284-1.138,12.375,12.375,0,0,1-.683-4.1A1.141,1.141,0,0,0,9.62,4.5H5.638A1.141,1.141,0,0,0,4.5,5.638,19.327,19.327,0,0,0,23.843,24.981a1.141,1.141,0,0,0,1.138-1.138V19.861A1.141,1.141,0,0,0,23.843,18.723Z" transform="translate(-4.5 -4.5)" fill="#fff"/>
</svg>
