<svg id="Group_156" data-name="Group 156" xmlns="http://www.w3.org/2000/svg" width="60" height="67.847" viewBox="0 0 60 67.847">
  <g id="Group_120" data-name="Group 120" transform="translate(40.435)">
    <g id="Group_119" data-name="Group 119" transform="translate(0)">
      <path id="Path_80" data-name="Path 80" d="M337.3,0A1.3,1.3,0,0,0,336,1.3v6a1.3,1.3,0,0,0,2.609,0v-6A1.3,1.3,0,0,0,337.3,0Z" transform="translate(-336)" fill="#fff"/>
    </g>
  </g>
  <g id="Group_122" data-name="Group 122" transform="translate(10.435 41.371)">
    <g id="Group_121" data-name="Group 121" transform="translate(0)">
      <path id="Path_81" data-name="Path 81" d="M107.3,312a1.3,1.3,0,1,0,1.3,1.3A1.3,1.3,0,0,0,107.3,312Z" transform="translate(-106 -312)" fill="#fff"/>
    </g>
  </g>
  <g id="Group_124" data-name="Group 124" transform="translate(0 13.826)">
    <g id="Group_123" data-name="Group 123" transform="translate(0)">
      <path id="Path_82" data-name="Path 82" d="M86,130.749a5.277,5.277,0,0,0-5.217-5.322H71.045a34.024,34.024,0,0,0,2-12.7c-.022-.788-.052-1.243-.092-1.53a5.216,5.216,0,1,0-10.432.128v1.331c0,8.415-10.593,13.143-18.587,15.171a3.917,3.917,0,0,0-3.586-2.4H27.3a1.318,1.318,0,0,0-1.3,1.331V158.69a1.318,1.318,0,0,0,1.3,1.331H40.348a3.916,3.916,0,0,0,3.574-2.37q.993.26,1.844.488a41.534,41.534,0,0,0,13.164,1.882H72.957a5.277,5.277,0,0,0,5.217-5.322,5.366,5.366,0,0,0-.883-2.959,5.317,5.317,0,0,0,3.492-5.024,5.4,5.4,0,0,0-.873-2.962,5.373,5.373,0,0,0,2.6-7.98A5.317,5.317,0,0,0,86,130.749ZM41.652,156.029a1.319,1.319,0,0,1-1.3,1.331H28.609V128.087H40.348a1.319,1.319,0,0,1,1.3,1.331Zm39.13-22.62H74.261a1.331,1.331,0,0,0,0,2.661h3.913a2.662,2.662,0,0,1,0,5.322H71.652a1.331,1.331,0,0,0,0,2.661h3.913a2.662,2.662,0,0,1,0,5.322H69.043a1.331,1.331,0,0,0,0,2.661h3.913a2.662,2.662,0,0,1,0,5.322H58.93a39.067,39.067,0,0,1-12.5-1.8q-.986-.263-2.164-.571V130.486c9.439-2.294,20.87-7.892,20.87-17.833v-1.331a2.609,2.609,0,1,1,5.217,0v0c0,.578.707,7.675-2.129,14.1H63.826a1.331,1.331,0,0,0,0,2.661H80.783a2.662,2.662,0,0,1,0,5.322Z" transform="translate(-26 -106)" fill="#fff"/>
    </g>
  </g>
  <g id="Group_126" data-name="Group 126" transform="translate(10.435 46.978)">
    <g id="Group_125" data-name="Group 125" transform="translate(0)">
      <path id="Path_83" data-name="Path 83" d="M107.3,352a1.3,1.3,0,0,0-1.3,1.3v10.435a1.3,1.3,0,0,0,2.609,0V353.3A1.3,1.3,0,0,0,107.3,352Z" transform="translate(-106 -352)" fill="#fff"/>
    </g>
  </g>
  <g id="Group_128" data-name="Group 128" transform="translate(24.783 16.707)">
    <g id="Group_127" data-name="Group 127" transform="translate(0)">
      <path id="Path_84" data-name="Path 84" d="M222.522,126H217.3a1.3,1.3,0,0,0,0,2.609h5.217a1.3,1.3,0,1,0,0-2.609Z" transform="translate(-216 -126)" fill="#fff"/>
    </g>
  </g>
  <g id="Group_130" data-name="Group 130" transform="translate(50.87 16.707)">
    <g id="Group_129" data-name="Group 129" transform="translate(0)">
      <path id="Path_85" data-name="Path 85" d="M422.522,126H417.3a1.3,1.3,0,0,0,0,2.609h5.217a1.3,1.3,0,1,0,0-2.609Z" transform="translate(-416 -126)" fill="#fff"/>
    </g>
  </g>
  <g id="Group_132" data-name="Group 132" transform="translate(47.813 5.367)">
    <g id="Group_131" data-name="Group 131">
      <path id="Path_86" data-name="Path 86" d="M398.486,41.533a1.3,1.3,0,0,0-1.845,0l-3.689,3.689a1.3,1.3,0,0,0,1.845,1.845l3.689-3.689A1.3,1.3,0,0,0,398.486,41.533Z" transform="translate(-392.57 -41.151)" fill="#fff"/>
    </g>
  </g>
  <g id="Group_134" data-name="Group 134" transform="translate(29.367 5.367)">
    <g id="Group_133" data-name="Group 133">
      <path id="Path_87" data-name="Path 87" d="M257.066,45.221l-3.689-3.689a1.3,1.3,0,1,0-1.845,1.845l3.689,3.689a1.3,1.3,0,1,0,1.845-1.845Z" transform="translate(-251.15 -41.151)" fill="#fff"/>
    </g>
  </g>
</svg>
